<svg viewBox="0 0 480 360" fill="none" xmlns="http://www.w3.org/2000/svg" role="img" aria-label="Gagal memuat data">
  <circle cx="240" cy="172" r="130" fill="#f1f5f9"></circle>
  <ellipse cx="240" cy="288" rx="150" ry="14" fill="#e2e8f0" opacity="0.7"></ellipse>
  <circle cx="372" cy="100" r="6" fill="#fcd34d"></circle>
  <circle cx="100" cy="118" r="5" fill="#cbd5e1"></circle>
  <circle cx="392" cy="206" r="4" fill="#94a3b8"></circle>
  
  <g transform="translate(132 80)">
    <rect x="0" y="0" width="176" height="150" rx="16" fill="#ffffff" stroke="#e2e8f0" stroke-width="3"></rect>
    
    <path d="M40 0 L70 54 L48 78 L96 150" stroke="#e2e8f0" stroke-width="3" fill="none"></path>
    <rect x="24" y="118" width="60" height="12" rx="6" fill="#f1f5f9"></rect>
  </g>
  
  <g transform="translate(184 96)">
    <path d="M56 6 C 60 -1, 70 -1, 74 6 L122 96 C 126 104, 121 114, 112 114 H18 C 9 114, 4 104, 8 96 Z" fill="#f59e0b"></path>
    <path d="M56 6 C 60 -1, 70 -1, 74 6 L122 96 C 126 104, 121 114, 112 114 H18 C 9 114, 4 104, 8 96 Z" fill="none" stroke="#ffffff" stroke-width="4" opacity="0.35"></path>
    <rect x="58" y="38" width="14" height="40" rx="7" fill="#ffffff"></rect>
    <circle cx="65" cy="92" r="8" fill="#ffffff"></circle>
  </g>
  
  <g transform="translate(286 176)">
    <ellipse cx="36" cy="96" rx="40" ry="10" fill="#cbd5e1"></ellipse>
    <path d="M36 6 L62 92 H10 Z" fill="#fb923c"></path>
    <path d="M27 44 H45 M22 64 H50" stroke="#ffffff" stroke-width="9" stroke-linecap="round"></path>
    <rect x="6" y="88" width="60" height="10" rx="5" fill="#f59e0b"></rect>
  </g>
</svg>