<svg viewBox="0 0 480 360" fill="none" xmlns="http://www.w3.org/2000/svg" role="img" aria-label="Truk pengangkut sampah di rute">
  
  <circle cx="240" cy="172" r="132" fill="#ecfdf5"></circle>
  
  <path d="M70 250 C 130 200, 180 230, 240 226 C 300 222, 350 198, 410 250 Z" fill="#d1fae5"></path>
  
  <circle cx="360" cy="92" r="26" fill="#a7f3d0"></circle>
  <circle cx="118" cy="80" r="6" fill="#6ee7b7"></circle>
  <circle cx="392" cy="150" r="5" fill="#34d399"></circle>
  <circle cx="92" cy="150" r="4" fill="#34d399"></circle>
  
  <g transform="translate(86 168)">
    <rect x="20" y="44" width="8" height="34" rx="4" fill="#047857"></rect>
    <path d="M24 10 C 4 30, 4 56, 24 70 L24 10 Z" fill="#10b981"></path>
    <path d="M24 10 C 44 30, 44 56, 24 70 L24 10 Z" fill="#047857"></path>
  </g>
  
  <ellipse cx="252" cy="276" rx="158" ry="14" fill="#bbf7d0" opacity="0.7"></ellipse>
  
  <path d="M118 196 H150 M104 214 H140 M120 232 H156" stroke="#6ee7b7" stroke-width="5" stroke-linecap="round"></path>
  
  <g transform="translate(150 150)">
    
    <rect x="0" y="6" width="158" height="86" rx="12" fill="#047857"></rect>
    <rect x="14" y="20" width="70" height="58" rx="8" fill="#065f46"></rect>
    
    <circle cx="122" cy="49" r="22" fill="#ffffff"></circle>
    <g transform="translate(122 49) rotate(-18)">
      <path d="M0 -14 C -8 -4, -8 8, 0 16 L0 -14 Z" fill="#10b981"></path>
      <path d="M0 -14 C 8 -4, 8 8, 0 16 L0 -14 Z" fill="#047857"></path>
    </g>
    
    <path d="M158 30 H196 C 202 30, 207 35, 209 41 L218 70 C 219 74, 220 78, 220 82 V92 H158 Z" fill="#10b981"></path>
    <rect x="166" y="40" width="38" height="26" rx="6" fill="#d1fae5"></rect>
    
    <rect x="2" y="92" width="218" height="14" rx="4" fill="#0f172a"></rect>
    
    <circle cx="52" cy="108" r="22" fill="#0f172a"></circle>
    <circle cx="52" cy="108" r="9" fill="#475569"></circle>
    <circle cx="184" cy="108" r="22" fill="#0f172a"></circle>
    <circle cx="184" cy="108" r="9" fill="#475569"></circle>
  </g>
</svg>