<svg viewBox="0 0 480 360" fill="none" xmlns="http://www.w3.org/2000/svg" role="img" aria-label="Terjadi kesalahan server">
  <circle cx="240" cy="172" r="130" fill="#f1f5f9"></circle>
  <ellipse cx="240" cy="290" rx="150" ry="14" fill="#e2e8f0" opacity="0.7"></ellipse>
  <circle cx="372" cy="100" r="6" fill="#fcd34d"></circle>
  <circle cx="100" cy="118" r="5" fill="#cbd5e1"></circle>
  <circle cx="392" cy="206" r="4" fill="#94a3b8"></circle>
  
  <g transform="translate(158 96)">
    
    <rect x="0" y="0" width="164" height="50" rx="12" fill="#ffffff" stroke="#e2e8f0" stroke-width="3"></rect>
    <circle cx="28" cy="25" r="7" fill="#22c55e"></circle>
    <rect x="48" y="20" width="80" height="10" rx="5" fill="#e2e8f0"></rect>
    <rect x="138" y="18" width="14" height="14" rx="3" fill="#f1f5f9"></rect>
    
    <rect x="0" y="62" width="164" height="50" rx="12" fill="#ffffff" stroke="#e2e8f0" stroke-width="3"></rect>
    <circle cx="28" cy="87" r="7" fill="#94a3b8"></circle>
    <rect x="48" y="82" width="80" height="10" rx="5" fill="#e2e8f0"></rect>
    <rect x="138" y="80" width="14" height="14" rx="3" fill="#f1f5f9"></rect>
    
    <rect x="0" y="124" width="164" height="50" rx="12" fill="#fef2f2" stroke="#fecaca" stroke-width="3"></rect>
    <circle cx="28" cy="149" r="7" fill="#ef4444"></circle>
    <rect x="48" y="144" width="60" height="10" rx="5" fill="#fee2e2"></rect>
  </g>
  
  <g transform="translate(280 178)">
    <circle cx="44" cy="44" r="42" fill="#ef4444"></circle>
    <rect x="36" y="20" width="16" height="32" rx="8" fill="#ffffff"></rect>
    <circle cx="44" cy="64" r="9" fill="#ffffff"></circle>
  </g>
</svg>