<svg viewBox="0 0 480 360" fill="none" xmlns="http://www.w3.org/2000/svg" role="img" aria-label="Berhasil dan terverifikasi">
  <circle cx="240" cy="172" r="130" fill="#ecfdf5"></circle>
  <ellipse cx="240" cy="286" rx="146" ry="14" fill="#bbf7d0" opacity="0.7"></ellipse>
  
  <path d="M360 96 l6 14 14 6 -14 6 -6 14 -6 -14 -14 -6 14 -6 z" fill="#6ee7b7"></path>
  <circle cx="112" cy="110" r="6" fill="#34d399"></circle>
  <circle cx="388" cy="208" r="5" fill="#10b981"></circle>
  <circle cx="98" cy="200" r="4" fill="#6ee7b7"></circle>
  
  <g transform="translate(150 64)">
    <rect x="0" y="14" width="180" height="216" rx="18" fill="#ffffff" stroke="#d1fae5" stroke-width="3"></rect>
    <rect x="56" y="2" width="68" height="30" rx="10" fill="#10b981"></rect>
    <rect x="30" y="60" width="120" height="12" rx="6" fill="#e2e8f0"></rect>
    <rect x="30" y="86" width="92" height="12" rx="6" fill="#eef2f7"></rect>
    <rect x="30" y="112" width="120" height="12" rx="6" fill="#eef2f7"></rect>
  </g>
  
  <g transform="translate(244 168)">
    <circle cx="48" cy="48" r="48" fill="#047857"></circle>
    <circle cx="48" cy="48" r="48" fill="none" stroke="#a7f3d0" stroke-width="4" opacity="0.5"></circle>
    <path d="M28 50 L42 64 L70 34" stroke="#ffffff" stroke-width="9" stroke-linecap="round" stroke-linejoin="round" fill="none"></path>
  </g>
</svg>